<svg id="Layer_1" data-name="Layer 1" xmlns="http://www.w3.org/2000/svg" viewBox="0 0 692.18 403.65"><defs><style>.cls-1,.cls-2,.cls-4{fill:#ea0f0f;}.cls-1{stroke:#ea1111;}.cls-1,.cls-10,.cls-4,.cls-6,.cls-7{stroke-miterlimit:10;}.cls-3{fill:#ea1111;}.cls-4{stroke:#2ecc71;}.cls-5{fill:#2ecc71;}.cls-6,.cls-7{stroke:#020202;}.cls-10,.cls-7{fill:none;stroke-width:3px;}.cls-8{fill:#020202;}.cls-9{font-size:29px;font-family:Roboto-Thin, Roboto;font-weight:200;}.cls-10{stroke:#000;}.cls-11{letter-spacing:0.02em;}</style></defs><title>Untitled-2</title><line class="cls-1" x1="309.18" y1="27" x2="309.18" y2="221.5"/><rect class="cls-2" x="285.68" y="68.22" width="47" height="130.25"/><path class="cls-3" d="M946,406.72V536H900V406.72h46m1-1H899V537h48V405.72Z" transform="translate(-613.82 -338)"/><line class="cls-4" x1="445.81" y1="199" x2="445.81" y2="349"/><rect class="cls-5" x="422.68" y="211.5" width="48" height="20"/><path class="cls-5" d="M1084,550v19h-47V550h47m1-1h-49v21h49V549Z" transform="translate(-613.82 -338)"/><line class="cls-1" x1="375.79" y1="150" x2="375.79" y2="293.5"/><rect class="cls-2" x="352.68" y="183.5" width="47" height="47"/><path class="cls-3" d="M1013,522v46H967V522h46m1-1H966v48h48V521Z" transform="translate(-613.82 -338)"/><line class="cls-4" x1="507.69" y1="99" x2="507.92" y2="249"/><rect class="cls-5" x="1098.48" y="449.5" width="48" height="99" transform="translate(-614.57 -336.31) rotate(-0.09)"/><path class="cls-5" d="M1145.91,450l.14,98-47,.08-.14-98,47-.08m1-1-49,.08.16,100,49-.08-.16-100Z" transform="translate(-613.82 -338)"/><line class="cls-4" x1="575.69" x2="575.92" y2="150"/><rect class="cls-5" x="1166.49" y="350.5" width="48" height="111" transform="translate(-614.43 -336.21) rotate(-0.09)"/><path class="cls-5" d="M1213.91,351l.16,110-47,.07-.16-110,47-.08m1-1-49,.08.17,112,49-.08-.17-112Z" transform="translate(-613.82 -338)"/><rect class="cls-6" x="200.68" y="236.5" width="491" height="0.01"/><line x1="337.18" y1="366" x2="414.68" y2="323.5"/><line class="cls-7" x1="337.18" y1="366" x2="398.8" y2="332.21"/><path class="cls-8" d="M1028.5,661.5c-6,6.87-12.62,16.68-15.62,24.84l-2.34-15-11.38-10C1007.65,663.18,1019.51,662.83,1028.5,661.5Z" transform="translate(-613.82 -338)"/><text class="cls-9" transform="translate(149 366.57)"><tspan xml:space="preserve"> Shooting Star</tspan></text><path class="cls-10" d="M745,632s103.25-5,162.35-34" transform="translate(-613.82 -338)"/><path d="M923,589c-5.85,7-12.38,16.86-15.26,25.07l-2.55-15-11.53-9.86C902.18,591,914,590.46,923,589Z" transform="translate(-613.82 -338)"/><text class="cls-9" transform="translate(0 298.57)"><tspan xml:space="preserve"> Suppo</tspan><tspan class="cls-11" x="87.67" y="0">r</tspan><tspan x="98.07" y="0">t</tspan></text></svg>